<svg width="40" height="10" viewBox="0 0 40 10" fill="none" xmlns="http://www.w3.org/2000/svg">
<path d="M1.09101 8.3898C1.43668 8.72713 1.83635 8.99917 2.30084 9.19504C2.76533 9.38003 3.27302 9.47797 3.82393 9.47797H6.07076C6.62166 9.47797 7.12936 9.38003 7.59385 9.19504C8.05833 8.99917 8.45801 8.73801 8.80367 8.3898C9.14934 8.04158 9.40859 7.63896 9.60303 7.17104C9.79746 6.70313 9.89468 6.18081 9.89468 5.62584V3.863C9.89468 3.30804 9.79746 2.78572 9.60303 2.3178C9.40859 1.84989 9.14934 1.43638 8.80367 1.09905C8.45801 0.761714 8.05833 0.489673 7.59385 0.293803C7.12936 0.0979318 6.62166 0 6.07076 0H3.82393C3.27302 0 2.76533 0.0979318 2.30084 0.293803C1.83635 0.489673 1.42587 0.750832 1.09101 1.09905C0.756146 1.44726 0.486093 1.84989 0.291656 2.3178C0.097219 2.7966 0 3.30804 0 3.863V5.62584C0 6.19169 0.097219 6.70313 0.291656 7.17104C0.486093 7.63896 0.756146 8.05247 1.09101 8.3898ZM1.65272 3.863C1.65272 3.53655 1.70673 3.23186 1.80394 2.9707C1.91197 2.69866 2.05239 2.47015 2.24683 2.28516C2.44127 2.08929 2.66811 1.94782 2.92736 1.839C3.19741 1.73019 3.48907 1.68666 3.81313 1.68666H6.05995C6.38401 1.68666 6.67567 1.74107 6.93492 1.839C7.20497 1.94782 7.43182 2.08929 7.61545 2.28516C7.80989 2.48103 7.95031 2.70954 8.05833 2.9707C8.16635 3.24275 8.20956 3.53655 8.20956 3.863V5.62584C8.20956 5.95229 8.15555 6.25698 8.05833 6.51814C7.95031 6.79019 7.80989 7.0187 7.61545 7.20369C7.42101 7.39956 7.19417 7.54103 6.93492 7.64984C6.66487 7.75866 6.37321 7.80219 6.04915 7.80219H3.81313C3.48907 7.80219 3.19741 7.74778 2.92736 7.64984C2.65731 7.54103 2.43046 7.39956 2.24683 7.20369C2.05239 7.00782 1.91197 6.7793 1.80394 6.51814C1.69592 6.2461 1.65272 5.95229 1.65272 5.62584V3.863Z" fill="#3F7939"/>
<path d="M13.1893 2.86189L19.2493 9.23857C19.3249 9.32563 19.4221 9.39091 19.5301 9.42356C19.6382 9.46709 19.7354 9.47797 19.8434 9.47797C19.9622 9.47797 20.0702 9.45621 20.1675 9.41268C20.2647 9.36916 20.3619 9.31474 20.4267 9.23857C20.5023 9.1624 20.5563 9.07535 20.6103 8.96653C20.6536 8.86859 20.6752 8.7489 20.6752 8.6292V0.130576H19.0116V6.62696L12.9517 0.26116C12.8329 0.141461 12.6924 0.0544059 12.5196 0.0217607C12.3576 -0.0108844 12.1955 0.01088 12.0335 0.0652886C11.8823 0.130579 11.7635 0.239397 11.6662 0.380859C11.569 0.522321 11.5258 0.674666 11.5258 0.848773V9.34739H13.1893V2.851V2.86189Z" fill="#3F7939"/>
<path d="M22.8355 9.10797C22.9112 9.18415 22.9976 9.23856 23.1056 9.28209C23.2028 9.32561 23.3216 9.34737 23.4405 9.34737H31.0019V7.67159H24.2614V0.130563H22.5979V8.50949C22.5979 8.62918 22.6195 8.738 22.6627 8.84682C22.7059 8.94475 22.7599 9.04269 22.8355 9.11886V9.10797Z" fill="#3F7939"/>
<path d="M31.3692 5.03822C31.5312 5.26673 31.7148 5.4626 31.92 5.62583C32.1253 5.78906 32.3413 5.91964 32.579 6.02846C32.8058 6.13727 33.0327 6.21344 33.2703 6.25697C33.4971 6.3005 33.724 6.32226 33.9292 6.32226H34.5882V9.34737H36.2625V6.32226H36.9322C37.1374 6.32226 37.3535 6.3005 37.5911 6.25697C37.818 6.21344 38.0556 6.13727 38.2717 6.02846C38.4985 5.91964 38.7145 5.78906 38.9306 5.62583C39.1358 5.4626 39.3303 5.26673 39.4815 5.03822C39.6435 4.8097 39.7623 4.54854 39.8596 4.24386C39.9568 3.93917 40 3.60183 40 3.22097V0.130563H38.3365V3.22097C38.3365 3.51478 38.2933 3.74329 38.2068 3.9174C38.1204 4.09151 38.0016 4.23297 37.872 4.3309C37.7316 4.42884 37.5803 4.49413 37.4183 4.53766C37.2563 4.58119 37.0942 4.61383 36.9322 4.63559H33.94C33.724 4.63559 33.5296 4.60295 33.3459 4.53766C33.1731 4.47237 33.0219 4.37443 32.8922 4.25473C32.7734 4.13503 32.6762 3.98269 32.6006 3.80859C32.5358 3.63448 32.5034 3.43861 32.5034 3.22097V0.130563H30.8398V3.22097C30.8398 3.60183 30.8831 3.93917 30.9803 4.24386C31.0775 4.54854 31.2071 4.8097 31.3583 5.03822H31.3692Z" fill="#3F7939"/>
</svg>
