<svg width="100" height="100" viewBox="0 0 100 100" fill="none" xmlns="http://www.w3.org/2000/svg">
<rect width="100" height="100" rx="8" fill="#5B822E"/>
<g clip-path="url(#clip0_56_47)">
<path d="M13.8304 88.0554C13.7108 88.091 13.6052 88.1479 13.5137 88.2119C13.4222 88.276 13.3448 88.3542 13.2744 88.4396C13.2111 88.525 13.1548 88.6103 13.1126 88.7028C13.0703 88.7953 13.0422 88.8878 13.0211 88.9874C13 89.087 12.9929 89.1724 12.9929 89.2506V91.6696C12.9929 91.8261 13.014 91.9613 13.0492 92.0822C13.0844 92.2032 13.1407 92.3099 13.2041 92.4024C13.2674 92.4949 13.3448 92.5731 13.4293 92.6371C13.5137 92.7012 13.5982 92.7581 13.6967 92.7937C13.7882 92.8363 13.8797 92.8648 13.9782 92.8862C14.0767 92.9075 14.1612 92.9146 14.2456 92.9146H17.4338V92.0182H14.2386C14.126 92.0182 14.0345 91.9897 13.9712 91.9257C13.9078 91.8617 13.8797 91.7763 13.8797 91.6625V89.2506C13.8797 89.1297 13.9078 89.0372 13.9712 88.9732C14.0345 88.9092 14.119 88.8807 14.2386 88.8807H17.4267V87.9843H14.2386C14.0838 87.9843 13.9501 88.0056 13.8304 88.0412V88.0554Z" fill="white"/>
<path d="M22.1632 92.0324H20.6079C20.6079 92.0324 20.5234 92.0324 20.439 92.0182C20.3545 92.004 20.249 91.9897 20.1364 91.9613C20.0238 91.9257 19.9041 91.883 19.7774 91.8119C19.6507 91.7407 19.5311 91.6554 19.4255 91.5344C19.32 91.4206 19.2285 91.2712 19.1581 91.1004C19.0877 90.9297 19.0525 90.7162 19.0525 90.4601V87.9914H18.1658V90.4601C18.1658 90.7518 18.201 91.0079 18.2713 91.2427C18.3417 91.4775 18.4332 91.6838 18.5529 91.8688C18.6725 92.0538 18.8132 92.2103 18.9681 92.3455C19.1229 92.4806 19.2989 92.5873 19.4748 92.6727C19.6578 92.7581 19.8408 92.8221 20.0308 92.8648C20.2208 92.9075 20.4108 92.9288 20.6009 92.9288H22.5926C22.6559 92.9288 22.7122 92.9146 22.7685 92.8933C22.8248 92.8719 22.8741 92.8364 22.9093 92.8008C22.9515 92.7581 22.9796 92.7154 23.0078 92.6585C23.0289 92.6016 23.043 92.5447 23.043 92.4806V87.9985H22.1562V92.0395L22.1632 92.0324Z" fill="white"/>
<path d="M27.6668 91.2783C27.7934 91.2498 27.9131 91.2143 28.0327 91.1573C28.1524 91.1004 28.272 91.0293 28.3846 90.9439C28.4972 90.8585 28.5957 90.7518 28.6802 90.6309C28.7647 90.5099 28.835 90.3676 28.8843 90.204C28.9336 90.0404 28.9617 89.8625 28.9617 89.6562V89.087C28.9617 88.9803 28.9406 88.8594 28.9054 88.7313C28.8702 88.6032 28.8069 88.4894 28.7224 88.3756C28.638 88.2689 28.5254 88.1764 28.3917 88.1052C28.2579 88.0341 28.089 87.9985 27.892 87.9985H24.5349C24.4716 87.9985 24.4153 88.0127 24.359 88.0341C24.3027 88.0554 24.2605 88.091 24.2182 88.1337C24.176 88.1764 24.1479 88.2262 24.1267 88.276C24.1056 88.3329 24.0916 88.3898 24.0916 88.4538V92.936H24.9783V88.8949H27.899C27.899 88.8949 27.9342 88.8949 27.9553 88.8949C27.9764 88.8949 27.9975 88.902 28.0186 88.9163C28.0398 88.9305 28.0538 88.9447 28.0679 88.9732C28.082 89.0016 28.089 89.0372 28.089 89.087V89.6491C28.089 89.7629 28.0679 89.8696 28.0327 89.9621C27.9975 90.0546 27.9483 90.1329 27.8779 90.1969C27.8146 90.2609 27.7301 90.3107 27.6386 90.3534C27.5471 90.389 27.4415 90.4174 27.336 90.4245H25.3372V91.321H25.9706L27.8146 92.936H29.1799L27.336 91.321C27.4415 91.321 27.5612 91.3067 27.6879 91.2854L27.6668 91.2783Z" fill="white"/>
<path d="M34.2894 90.6309C34.212 90.5241 34.1275 90.4317 34.036 90.3534C33.9375 90.2751 33.839 90.2111 33.7334 90.1613C33.6278 90.1115 33.5223 90.0759 33.4167 90.0475C33.3111 90.0261 33.2126 90.0119 33.1141 90.0048H31.0731C30.9042 90.0048 30.7775 89.955 30.679 89.8554C30.5805 89.7558 30.5382 89.6206 30.5382 89.4499C30.5382 89.2791 30.5875 89.1439 30.679 89.0372C30.7705 88.9305 30.9042 88.8807 31.0731 88.8807H34.0853V87.9843H31.0731C30.9324 87.9843 30.7775 88.0127 30.6086 88.0625C30.4397 88.1123 30.2919 88.1977 30.1512 88.3115C30.0104 88.4254 29.8908 88.5748 29.7993 88.7597C29.7078 88.9447 29.6585 89.1724 29.6585 89.4356C29.6585 89.6989 29.7078 89.9336 29.7993 90.1186C29.8908 90.3036 30.0104 90.453 30.1512 90.5668C30.2919 90.6807 30.4467 90.766 30.6086 90.8158C30.7775 90.8656 30.9324 90.8941 31.0731 90.8941H33.107C33.1915 90.8941 33.2619 90.9083 33.3322 90.9368C33.3956 90.9652 33.4519 91.0008 33.5011 91.0506C33.5504 91.1004 33.5856 91.1573 33.6067 91.2285C33.6278 91.2996 33.6419 91.3708 33.6419 91.4561C33.6419 91.6269 33.5926 91.7621 33.5011 91.8617C33.4097 91.9613 33.2759 92.0111 33.107 92.0111H29.6937V92.9075H33.107C33.2056 92.9075 33.3041 92.8933 33.4097 92.8719C33.5152 92.8506 33.6208 92.815 33.7264 92.7652C33.8319 92.7154 33.9305 92.6585 34.029 92.5802C34.1275 92.502 34.212 92.4166 34.2823 92.3028C34.3527 92.1961 34.4161 92.068 34.4583 91.9328C34.5005 91.7905 34.5216 91.634 34.5216 91.4561C34.5216 91.2783 34.5005 91.1218 34.4583 90.9795C34.4161 90.8372 34.3598 90.7162 34.2823 90.6095L34.2894 90.6309Z" fill="white"/>
<path d="M39.807 88.5108C39.624 88.3258 39.4129 88.1835 39.1595 88.0839C38.9132 87.9772 38.6388 87.9274 38.3502 87.9274H37.1538C36.8582 87.9274 36.5908 87.9772 36.3374 88.0839C36.084 88.1906 35.8729 88.3329 35.6899 88.5108C35.5069 88.6957 35.3662 88.9092 35.2606 89.1653C35.155 89.4214 35.1058 89.6918 35.1058 89.9906V90.9297C35.1058 91.2285 35.155 91.506 35.2606 91.7621C35.3662 92.0111 35.5069 92.2316 35.6899 92.4166C35.8729 92.6016 36.084 92.7439 36.3374 92.8435C36.5837 92.9431 36.8582 93 37.1538 93H38.3502C38.6458 93 38.9132 92.9502 39.1595 92.8435C39.4059 92.7439 39.624 92.6016 39.807 92.4166C39.99 92.2316 40.1308 92.0182 40.2293 91.7621C40.3278 91.5131 40.3841 91.2356 40.3841 90.9297V89.9906C40.3841 89.6918 40.3349 89.4143 40.2293 89.1653C40.1237 88.9092 39.983 88.6957 39.807 88.5108ZM39.5044 90.9297C39.5044 91.1075 39.4763 91.2641 39.4199 91.4064C39.3636 91.5486 39.2862 91.6696 39.1807 91.7763C39.0751 91.8759 38.9555 91.9542 38.8147 92.0111C38.6739 92.068 38.5191 92.0965 38.3432 92.0965H37.1538C36.9778 92.0965 36.823 92.068 36.6822 92.0111C36.5415 91.9542 36.4148 91.8759 36.3163 91.7763C36.2177 91.6767 36.1333 91.5486 36.077 91.4064C36.0207 91.2641 35.9925 91.1004 35.9925 90.9297V89.9906C35.9925 89.8127 36.0207 89.6562 36.077 89.5139C36.1333 89.3716 36.2107 89.2507 36.3163 89.1439C36.4218 89.0443 36.5415 88.9661 36.6822 88.9092C36.823 88.8522 36.9778 88.8238 37.1538 88.8238H38.3502C38.5191 88.8238 38.6739 88.8522 38.8217 88.9092C38.9625 88.9661 39.0821 89.0443 39.1877 89.1439C39.2862 89.2435 39.3636 89.3716 39.4199 89.5139C39.4763 89.6562 39.5044 89.8198 39.5044 89.9906V90.9297Z" fill="white"/>
<path d="M45.7117 90.6309C45.6343 90.5241 45.5498 90.4317 45.4583 90.3534C45.3598 90.2751 45.2613 90.2111 45.1557 90.1613C45.0501 90.1115 44.9446 90.0759 44.839 90.0475C44.7334 90.0261 44.6349 90.0119 44.5364 90.0048H42.4954C42.3265 90.0048 42.1998 89.955 42.1013 89.8554C42.0028 89.7558 41.9605 89.6206 41.9605 89.4499C41.9605 89.2791 42.0098 89.1439 42.1013 89.0372C42.1928 88.9305 42.3265 88.8807 42.4954 88.8807H45.5076V87.9843H42.4954C42.3547 87.9843 42.1998 88.0127 42.0309 88.0625C41.862 88.1123 41.7142 88.1977 41.5735 88.3115C41.4327 88.4254 41.3131 88.5748 41.2216 88.7597C41.1301 88.9447 41.0808 89.1724 41.0808 89.4356C41.0808 89.6989 41.1301 89.9336 41.2216 90.1186C41.3131 90.3036 41.4327 90.453 41.5735 90.5668C41.7142 90.6807 41.869 90.766 42.0309 90.8158C42.1998 90.8656 42.3547 90.8941 42.4954 90.8941H44.5293C44.6138 90.8941 44.6842 90.9083 44.7545 90.9368C44.8179 90.9652 44.8742 91.0008 44.9235 91.0506C44.9727 91.1004 45.0079 91.1573 45.029 91.2285C45.0501 91.2996 45.0642 91.3708 45.0642 91.4561C45.0642 91.6269 45.0149 91.7621 44.9235 91.8617C44.832 91.9613 44.6982 92.0111 44.5293 92.0111H41.116V92.9075H44.5293C44.6279 92.9075 44.7264 92.8933 44.832 92.8719C44.9375 92.8506 45.0431 92.815 45.1487 92.7652C45.2542 92.7154 45.3528 92.6585 45.4513 92.5802C45.5498 92.502 45.6343 92.4166 45.7046 92.3028C45.775 92.1961 45.8384 92.068 45.8806 91.9328C45.9228 91.7905 45.9439 91.634 45.9439 91.4561C45.9439 91.2783 45.9228 91.1218 45.8806 90.9795C45.8384 90.8372 45.7821 90.7162 45.7046 90.6095L45.7117 90.6309Z" fill="white"/>
<path d="M48.4635 88.8878H50.42V92.9288H51.2997V88.8878H53.2492V87.9985H48.4635V88.8878Z" fill="white"/>
<path d="M57.9153 90.0119H55.1213V90.9154H57.9153V90.0119Z" fill="white"/>
<path d="M56.4021 87.529L58.1827 86.8887L57.8026 86.0491L56.1699 87.0167L56.4021 87.529Z" fill="white"/>
<path d="M54.15 88.027C54.0937 88.0483 54.0515 88.0839 54.0092 88.1266C53.967 88.1692 53.9389 88.219 53.9178 88.2688C53.8966 88.3258 53.8826 88.3827 53.8826 88.4467V91.6767C53.8826 91.9115 53.9248 92.1036 54.0092 92.2601C54.0937 92.4166 54.1922 92.5518 54.3189 92.6514C54.4456 92.751 54.5793 92.8221 54.7201 92.8648C54.8679 92.9075 55.0016 92.9288 55.1212 92.9288H58.3164V92.0324H55.1283C55.0086 92.0324 54.9242 92.004 54.8608 91.9399C54.7975 91.8759 54.7693 91.7905 54.7693 91.6696V88.8878H58.3164V87.9914H54.333C54.2696 87.9914 54.2133 88.0056 54.157 88.027H54.15Z" fill="white"/>
<path d="M59.907 88.0554C59.7873 88.091 59.6817 88.1479 59.5903 88.2119C59.4988 88.276 59.4213 88.3542 59.351 88.4396C59.2876 88.525 59.2313 88.6103 59.1891 88.7028C59.1469 88.7953 59.1187 88.8878 59.0976 88.9874C59.0765 89.087 59.0695 89.1724 59.0695 89.2506V91.6696C59.0695 91.8261 59.0906 91.9613 59.1258 92.0822C59.161 92.2032 59.2173 92.3099 59.2806 92.4024C59.3439 92.4949 59.4214 92.5731 59.5058 92.6371C59.5903 92.7012 59.6747 92.7581 59.7732 92.7937C59.8647 92.8363 59.9562 92.8648 60.0548 92.8862C60.1533 92.9075 60.2377 92.9146 60.3222 92.9146H63.5103V92.0182H60.3222C60.2096 92.0182 60.1181 91.9897 60.0548 91.9257C59.9914 91.8617 59.9633 91.7763 59.9633 91.6625V89.2506C59.9633 89.1297 59.9914 89.0372 60.0548 88.9732C60.1181 88.9092 60.2025 88.8807 60.3222 88.8807H63.5103V87.9843H60.3222C60.1674 87.9843 60.0336 88.0056 59.914 88.0412L59.907 88.0554Z" fill="white"/>
<path d="M68.3312 91.4704L65.1008 88.0625C65.0375 87.9985 64.9601 87.9558 64.8756 87.9345C64.7841 87.9203 64.6997 87.9274 64.6152 87.9629C64.5378 87.9985 64.4674 88.0554 64.4182 88.1266C64.3689 88.1977 64.3408 88.2831 64.3408 88.3756V92.9288H65.2275V89.457L68.4579 92.8719C68.5001 92.9146 68.5494 92.9502 68.6057 92.9715C68.662 92.9929 68.7183 93 68.7675 93C68.8309 93 68.8872 92.9858 68.9435 92.9644C68.9998 92.9431 69.042 92.9075 69.0842 92.8719C69.1265 92.8292 69.1546 92.7866 69.1828 92.7296C69.2039 92.6727 69.218 92.6158 69.218 92.5518V87.9985H68.3312V91.4704Z" fill="white"/>
<path d="M71.1393 87.9985H70.2525V92.9288H71.1393V87.9985Z" fill="white"/>
<path d="M72.941 88.0554C72.8213 88.091 72.7158 88.1479 72.6243 88.2119C72.5328 88.276 72.4554 88.3542 72.385 88.4396C72.3217 88.525 72.2654 88.6103 72.2231 88.7028C72.1809 88.7953 72.1527 88.8878 72.1316 88.9874C72.1105 89.087 72.1035 89.1724 72.1035 89.2506V91.6696C72.1035 91.8261 72.1246 91.9613 72.1598 92.0822C72.195 92.2032 72.2513 92.3099 72.3146 92.4024C72.378 92.4949 72.4554 92.5731 72.5398 92.6371C72.6243 92.7012 72.7087 92.7581 72.8073 92.7937C72.8988 92.8363 72.9902 92.8648 73.0888 92.8862C73.1873 92.9075 73.2718 92.9146 73.3562 92.9146H76.5443V92.0182H73.3562C73.2436 92.0182 73.1521 91.9897 73.0888 91.9257C73.0254 91.8617 72.9973 91.7763 72.9973 91.6625V89.2506C72.9973 89.1297 73.0254 89.0372 73.0888 88.9732C73.1521 88.9092 73.2366 88.8807 73.3562 88.8807H76.5443V87.9843H73.3562C73.2014 87.9843 73.0677 88.0056 72.948 88.0412L72.941 88.0554Z" fill="white"/>
<path d="M81.8508 88.5108C81.6678 88.3258 81.4567 88.1835 81.2033 88.0839C80.957 87.9772 80.6825 87.9274 80.394 87.9274H79.1976C78.902 87.9274 78.6345 87.9772 78.3812 88.0839C78.1278 88.1906 77.9167 88.3329 77.7337 88.5108C77.5507 88.6957 77.41 88.9092 77.3044 89.1653C77.1988 89.4214 77.1496 89.6918 77.1496 89.9906V90.9297C77.1496 91.2285 77.1988 91.506 77.3044 91.7621C77.41 92.0111 77.5507 92.2316 77.7337 92.4166C77.9167 92.6016 78.1278 92.7439 78.3812 92.8435C78.6275 92.9431 78.902 93 79.1976 93H80.394C80.6896 93 80.957 92.9502 81.2033 92.8435C81.4497 92.7439 81.6678 92.6016 81.8508 92.4166C82.0338 92.2316 82.1746 92.0182 82.2731 91.7621C82.3716 91.5131 82.4279 91.2356 82.4279 90.9297V89.9906C82.4279 89.6918 82.3787 89.4143 82.2731 89.1653C82.1675 88.9092 82.0268 88.6957 81.8508 88.5108ZM81.5412 90.9297C81.5412 91.1075 81.513 91.2641 81.4567 91.4064C81.4004 91.5486 81.323 91.6696 81.2174 91.7763C81.1118 91.8759 80.9922 91.9542 80.8515 92.0111C80.7107 92.068 80.5559 92.0965 80.3799 92.0965H79.1905C79.0146 92.0965 78.8597 92.068 78.719 92.0111C78.5782 91.9542 78.4516 91.8759 78.353 91.7763C78.2545 91.6767 78.17 91.5486 78.1137 91.4064C78.0574 91.2641 78.0293 91.1004 78.0293 90.9297V89.9906C78.0293 89.8127 78.0574 89.6562 78.1137 89.5139C78.17 89.3716 78.2475 89.2507 78.353 89.1439C78.4586 89.0443 78.5782 88.9661 78.719 88.9092C78.8597 88.8522 79.0146 88.8238 79.1905 88.8238H80.387C80.5559 88.8238 80.7107 88.8522 80.8585 88.9092C80.9992 88.9661 81.1189 89.0443 81.2245 89.1439C81.323 89.2435 81.4004 89.3716 81.4567 89.5139C81.513 89.6562 81.5412 89.8198 81.5412 89.9906V90.9297Z" fill="white"/>
<path d="M87.9245 91.0008C87.8822 90.8585 87.8259 90.7376 87.7485 90.6309C87.6711 90.5241 87.5867 90.4317 87.4952 90.3534C87.3966 90.2751 87.2981 90.2111 87.1925 90.1613C87.087 90.1115 86.9814 90.0759 86.8758 90.0475C86.7703 90.0261 86.6717 90.0119 86.5732 90.0048H84.5322C84.3633 90.0048 84.2367 89.955 84.1381 89.8554C84.0466 89.7558 83.9974 89.6206 83.9974 89.4499C83.9974 89.2791 84.0466 89.1439 84.1381 89.0372C84.2296 88.9305 84.3633 88.8807 84.5322 88.8807H87.5444V87.9843H84.5322C84.3915 87.9843 84.2367 88.0127 84.0678 88.0625C83.8988 88.1123 83.7511 88.1977 83.6103 88.3115C83.4695 88.4254 83.3499 88.5748 83.2584 88.7597C83.1669 88.9447 83.1176 89.1724 83.1176 89.4356C83.1176 89.6989 83.1669 89.9336 83.2584 90.1186C83.3499 90.3036 83.4695 90.453 83.6103 90.5668C83.7511 90.6807 83.9059 90.766 84.0678 90.8158C84.2367 90.8656 84.3915 90.8941 84.5322 90.8941H86.5662C86.6506 90.8941 86.721 90.9083 86.7914 90.9368C86.8547 90.9652 86.911 91.0008 86.9603 91.0506C87.0095 91.1004 87.0447 91.1573 87.0659 91.2285C87.087 91.2996 87.101 91.3708 87.101 91.4561C87.101 91.6269 87.0518 91.7621 86.9603 91.8617C86.8688 91.9613 86.7351 92.0111 86.5662 92.0111H83.1528V92.9075H86.5662C86.6647 92.9075 86.7632 92.8933 86.8688 92.8719C86.9744 92.8506 87.0799 92.815 87.1855 92.7652C87.2911 92.7154 87.3896 92.6585 87.4881 92.5802C87.5866 92.502 87.6711 92.4166 87.7415 92.3028C87.8119 92.1961 87.8752 92.068 87.9174 91.9328C87.9597 91.7905 87.9808 91.634 87.9808 91.4561C87.9808 91.2783 87.9597 91.1218 87.9174 90.9795L87.9245 91.0008Z" fill="white"/>
<path d="M33.1 80.7133H67.6204C68.5424 80.7133 69.4643 80.4429 70.2807 79.9236C72.5821 78.458 73.3281 75.4272 71.9768 73.0296L57.0356 45.9661L57.0144 33.3805H57.3874C59.0132 33.3805 60.3433 32.043 60.3433 30.4067V28.4786C60.3433 27.7316 59.7381 27.1198 58.9991 27.1198H41.7213C40.9823 27.1198 40.3771 27.7316 40.3771 28.4786V30.4067C40.3771 32.0501 41.7002 33.3805 43.3329 33.3805L43.6848 33.3521V45.9661L28.7506 73.0225C27.3994 75.4343 28.1383 78.4651 30.4467 79.9236C31.2631 80.4429 32.1851 80.7133 33.107 80.7133H33.1ZM30.1511 75.3062H37.4986C38.0687 75.3062 38.5332 74.8367 38.5332 74.2604C38.5332 73.6841 38.0687 73.2146 37.4986 73.2146H30.9957L33.8601 68.0281H41.0949C41.7002 68.0281 42.1928 67.5586 42.1928 66.9823C42.1928 66.406 41.7002 65.9365 41.0949 65.9365H35.0143L37.6746 61.1199H45.2543C45.8877 61.1199 46.4085 60.6504 46.4085 60.0741C46.4085 59.4978 45.8947 59.0283 45.2543 59.0283H38.8288L41.8057 53.6355H48.9069C49.5051 53.6355 49.9907 53.1659 49.9907 52.5897C49.9907 52.0134 49.5051 51.5438 48.9069 51.5438H42.9599L45.6132 46.7344L45.7469 46.4997V33.345C45.7469 32.2138 44.832 31.2889 43.706 31.2889H43.3329C42.8403 31.2889 42.4392 30.8905 42.4392 30.3996V29.2043H58.2812V30.3996C58.2812 30.8905 57.8801 31.2889 57.3874 31.2889H57.0144C55.8884 31.2889 54.9735 32.2138 54.9735 33.345V46.4997L70.1751 74.047C70.9845 75.4841 70.5481 77.2841 69.1828 78.152C68.6972 78.458 68.1553 78.6216 67.6134 78.6216H33.1C32.5651 78.6216 32.0232 78.458 31.5376 78.152C30.5523 77.526 30.0526 76.4161 30.1511 75.2991V75.3062Z" fill="white"/>
<path d="M49.8288 25.704C52.7847 25.704 55.1705 23.2922 55.1705 20.3112C55.1705 18.995 54.706 17.7856 53.9248 16.8536C54.1289 16.4267 54.2415 15.9429 54.2415 15.4449C54.2415 13.6521 52.7987 12.1865 51.0182 12.1865C49.2376 12.1865 47.8652 13.5809 47.8019 15.3169C45.8595 16.1208 44.4941 18.0559 44.4941 20.3112C44.4941 23.2922 46.88 25.704 49.8288 25.704ZM49.4839 14.9184C49.6951 14.2639 50.3074 13.8015 51.0182 13.8015C51.912 13.8015 52.6439 14.5343 52.6439 15.4378C52.6439 15.5303 52.6369 15.6157 52.6228 15.701C52.5243 16.2844 52.1302 16.7682 51.5953 16.9674C51.4123 17.0386 51.2223 17.0741 51.0182 17.0741C50.5326 17.0741 50.1033 16.8607 49.8077 16.5192C49.5473 16.2346 49.3925 15.8504 49.3925 15.4307C49.3925 15.2457 49.4206 15.075 49.4769 14.9113L49.4839 14.9184ZM48.1538 16.9318C48.6887 17.9848 49.7725 18.6962 51.0182 18.6962C51.7079 18.6962 52.3483 18.4757 52.8691 18.1057C53.3125 18.7247 53.5659 19.4859 53.5659 20.3041C53.5659 22.3887 51.8909 24.0819 49.8218 24.0819C47.7526 24.0819 46.0847 22.3887 46.0847 20.3041C46.0847 18.8314 46.9222 17.5508 48.1468 16.9247L48.1538 16.9318Z" fill="white"/>
<path d="M47.7949 10.6426C48.7872 10.6426 49.5966 9.82446 49.5966 8.82132C49.5966 7.81817 48.7872 7.00001 47.7949 7.00001C46.8026 7.00001 45.9932 7.81817 45.9932 8.82132C45.9932 9.82446 46.8026 10.6426 47.7949 10.6426ZM47.7949 8.04584C48.2172 8.04584 48.5691 8.39445 48.5691 8.82843C48.5691 9.26242 48.2242 9.61103 47.7949 9.61103C47.3656 9.61103 47.0207 9.26242 47.0207 8.82843C47.0207 8.39445 47.3656 8.04584 47.7949 8.04584Z" fill="white"/>
<path d="M40.4615 74.9221C40.6867 75.1426 40.9471 75.3205 41.2497 75.4486C41.5523 75.5695 41.8831 75.6335 42.2421 75.6335H43.7059C44.0648 75.6335 44.3956 75.5695 44.6982 75.4486C45.0009 75.3205 45.2613 75.1498 45.4865 74.9221C45.7117 74.6944 45.8806 74.4312 46.0073 74.1253C46.134 73.8193 46.1973 73.4778 46.1973 73.115V71.9625C46.1973 71.5996 46.134 71.2581 46.0073 70.9522C45.8806 70.6463 45.7117 70.3759 45.4865 70.1554C45.2613 69.9348 45.0009 69.757 44.6982 69.6289C44.3956 69.5008 44.0648 69.4368 43.7059 69.4368H42.2421C41.8831 69.4368 41.5523 69.5008 41.2497 69.6289C40.9471 69.757 40.6797 69.9277 40.4615 70.1554C40.2433 70.383 40.0674 70.6463 39.9407 70.9522C39.814 71.2652 39.7507 71.5996 39.7507 71.9625V73.115C39.7507 73.485 39.814 73.8193 39.9407 74.1253C40.0674 74.4312 40.2433 74.7015 40.4615 74.9221ZM40.8275 71.9625C40.8275 71.749 40.8626 71.5498 40.926 71.3791C40.9964 71.2012 41.0879 71.0518 41.2145 70.9309C41.3412 70.8028 41.489 70.7103 41.6579 70.6392C41.8339 70.568 42.0239 70.5396 42.235 70.5396H43.6989C43.91 70.5396 44.1 70.5751 44.2689 70.6392C44.4449 70.7103 44.5927 70.8028 44.7123 70.9309C44.839 71.0589 44.9305 71.2083 45.0009 71.3791C45.0713 71.5569 45.0994 71.749 45.0994 71.9625V73.115C45.0994 73.3284 45.0642 73.5276 45.0009 73.6984C44.9305 73.8763 44.839 74.0257 44.7123 74.1466C44.5856 74.2747 44.4379 74.3672 44.2689 74.4383C44.093 74.5094 43.903 74.5379 43.6918 74.5379H42.235C42.0239 74.5379 41.8339 74.5023 41.6579 74.4383C41.482 74.3672 41.3342 74.2747 41.2145 74.1466C41.0879 74.0185 40.9964 73.8691 40.926 73.6984C40.8556 73.5205 40.8275 73.3284 40.8275 73.115V71.9625Z" fill="white"/>
<path d="M48.3438 71.3079L52.292 75.477C52.3413 75.5339 52.4046 75.5766 52.475 75.598C52.5454 75.6264 52.6087 75.6335 52.6791 75.6335C52.7565 75.6335 52.8269 75.6193 52.8903 75.5908C52.9536 75.5624 53.0169 75.5268 53.0592 75.477C53.1084 75.4272 53.1436 75.3703 53.1788 75.2991C53.207 75.2351 53.221 75.1569 53.221 75.0786V69.5222H52.1372V73.7695L48.189 69.6076C48.1116 69.5293 48.0201 69.4724 47.9075 69.451C47.8019 69.4297 47.6964 69.4439 47.5908 69.4795C47.4923 69.5222 47.4148 69.5933 47.3515 69.6858C47.2882 69.7783 47.26 69.8779 47.26 69.9917V75.5482H48.3438V71.3008V71.3079Z" fill="white"/>
<path d="M54.6286 75.3916C54.6779 75.4414 54.7342 75.477 54.8045 75.5054C54.8679 75.5339 54.9453 75.5481 55.0227 75.5481H59.9492V74.4525H55.5576V69.5222H54.4738V75.0003C54.4738 75.0786 54.4878 75.1497 54.516 75.2209C54.5441 75.2849 54.5793 75.3489 54.6286 75.3987V75.3916Z" fill="white"/>
<path d="M60.1885 72.7308C60.294 72.8802 60.4137 73.0083 60.5474 73.115C60.6811 73.2217 60.8219 73.3071 60.9767 73.3782C61.1245 73.4494 61.2723 73.4992 61.4271 73.5276C61.5749 73.5561 61.7227 73.5703 61.8564 73.5703H62.2857V75.5481H63.3766V73.5703H63.8129C63.9466 73.5703 64.0874 73.5561 64.2422 73.5276C64.39 73.4992 64.5449 73.4494 64.6856 73.3782C64.8334 73.3071 64.9742 73.2217 65.1149 73.115C65.2486 73.0083 65.3753 72.8802 65.4738 72.7308C65.5794 72.5814 65.6568 72.4106 65.7202 72.2114C65.7835 72.0122 65.8117 71.7917 65.8117 71.5427V69.5222H64.7278V71.5427C64.7278 71.7348 64.6997 71.8842 64.6434 71.998C64.5871 72.1118 64.5097 72.2043 64.4252 72.2683C64.3337 72.3324 64.2352 72.3751 64.1296 72.4035C64.0241 72.432 63.9185 72.4533 63.8129 72.4676H61.8634C61.7227 72.4676 61.596 72.4462 61.4764 72.4035C61.3638 72.3608 61.2652 72.2968 61.1808 72.2185C61.1034 72.1403 61.04 72.0407 60.9908 71.9269C60.9485 71.813 60.9274 71.685 60.9274 71.5427V69.5222H59.8436V71.5427C59.8436 71.7917 59.8718 72.0122 59.9351 72.2114C59.9984 72.4106 60.0829 72.5814 60.1814 72.7308H60.1885Z" fill="white"/>
</g>
<defs>
<clipPath id="clip0_56_47">
<rect width="74.9878" height="86" fill="white" transform="translate(13 7)"/>
</clipPath>
</defs>
</svg>
